PathFileType	4	(X/Y/Z)	D:\TRACE\spotREDO_2-26-24\spot_Both_Motion_3_9-platform.trc
DataRate	CameraRate	NumFrames	NumMarkers	Units	OrigDataRate	OrigDataStartFrame	OrigNumFrames
100.00	100.00	      42	5	mm	100.00	5251	      7000
Frame#	Time	Left_Front			Right_Front			Left_Aft			Right_Aft			Post			
		X1	Y1	Z1	X2	Y2	Z2	X3	Y3	Z3	X4	Y4	Z4	X5	Y5	Z5	

5251	52.500	-715.85645	-10.67154	-577.57642	698.78955	-1.40984	-492.75912	-787.49890	11.15693	640.75433	782.05542	18.38364	646.12262	-21.58527	610.99249	-991.20197	
5252	52.510	-715.92352	-10.80401	-577.60675	698.80438	-1.42938	-492.89734	-787.42120	11.39960	640.69849	781.96698	18.65758	646.06555	-21.45494	610.71283	-991.35004	
5253	52.520	-715.91785	-11.14120	-577.64233	698.81653	-1.54685	-492.93936	-787.66388	11.98426	640.59814	781.87811	18.80906	646.06055	-21.47774	610.48145	-991.65466	
5254	52.530	-715.87726	-11.55043	-577.66699	698.94708	-1.82785	-493.10495	-787.64636	12.16673	640.47736	781.80652	18.93968	645.95068	-21.27031	609.88544	-992.23785	
5255	52.540	-715.85358	-11.72640	-577.73914	699.00671	-2.06423	-493.17938	-787.54919	12.41873	640.36426	781.81342	19.05146	645.81598	-21.29596	609.19025	-992.61163	
5256	52.550	-715.92389	-11.83136	-577.70654	699.20313	-2.45737	-493.11948	-787.32501	12.50395	640.40356	781.94135	19.35310	645.66974	-21.40467	608.78412	-992.85834	
5257	52.560	-715.82288	-12.02859	-577.82526	699.24933	-2.53181	-493.14304	-787.17346	12.88619	640.38770	781.99030	19.93438	645.64740	-21.18263	608.38794	-993.18213	
5258	52.570	-715.36200	-12.61320	-577.58618	699.27869	-2.70449	-493.28464	-787.10767	13.13883	640.30292	782.13550	20.40062	645.59454	-21.35416	608.03662	-993.59766	
5259	52.580	-715.59662	-12.86132	-577.81226	699.34521	-3.06838	-493.28818	-787.06622	13.39226	640.23102	782.18585	20.79529	645.45538	-21.39716	607.10687	-994.40070	
5260	52.590	-715.44806	-13.25128	-578.08026	699.35242	-3.10976	-493.43381	-786.98444	13.61031	640.11444	782.09265	21.07681	645.34656	-21.05291	606.61652	-994.87238	
5261	52.600	-715.11542	-13.76671	-578.33191	699.37592	-3.51919	-493.53244	-786.91290	13.96001	640.05994	782.13177	21.35559	645.27063	-21.16842	606.07440	-995.27954	
5262	52.610	-715.12988	-13.69018	-578.42865	699.52386	-4.05691	-493.54318	-786.95740	14.40590	640.04889	782.28821	21.64368	645.15045	-21.06935	605.73608	-995.51404	
5263	52.620	-715.05280	-14.32254	-578.37830	699.51007	-4.32554	-493.67245	-786.84906	14.98626	639.93829	782.51617	21.95606	645.03485	-20.75613	604.97931	-996.01178	
5264	52.630	-715.01520	-14.48277	-578.39142	699.54901	-4.56311	-493.77243	-786.68365	15.38819	639.75281	782.56873	22.11826	645.00262	-20.43030	604.26031	-996.33606	
5265	52.640	-715.20313	-14.70542	-578.22510	699.61682	-4.91050	-493.72745	-786.60455	15.65851	639.63287	782.86920	22.57047	645.31726	-20.41637	603.90845	-996.86761	
5266	52.650	-714.81403	-15.41239	-578.63489	699.79034	-5.25762	-493.86414	-786.58002	15.78903	639.59686	782.85211	23.08121	644.83704	-20.44157	603.29474	-997.28186	
5267	52.660	-714.86273	-15.63772	-578.74652	700.01288	-5.56571	-493.87155	-786.40149	16.05108	639.59918	782.87952	23.64520	644.81372	-20.46664	602.61725	-997.47882	
5268	52.670	-714.74500	-16.07297	-578.79608	700.06812	-5.81277	-493.99860	-786.32831	16.41131	639.42212	782.95477	23.89156	644.72076	-20.14666	602.09241	-997.76227	
5269	52.680	-714.58636	-16.53163	-578.85577	700.01184	-5.89618	-494.16840	-786.14825	16.85932	639.27002	783.07635	24.19861	644.60669	-20.29297	601.36627	-998.13654	
5270	52.690	-714.44312	-16.90289	-578.91724	700.24585	-6.29780	-494.21741	-785.99005	17.51072	639.07739	783.10895	24.58061	644.61761	-19.85420	600.53705	-999.00543	
5271	52.700	-714.37268	-17.34360	-579.09332	700.38898	-6.61252	-494.31067	-785.95880	17.95693	638.96436	783.29779	25.13356	644.41418	-19.85529	599.95172	-999.46362	
5272	52.710	-714.20947	-17.83611	-579.20111	700.76764	-7.19253	-494.40497	-785.92737	18.26525	638.82037	783.63434	25.53045	644.19122	-19.75598	599.35699	-999.91595	
5273	52.720	-713.99200	-18.27038	-579.24176	700.86261	-7.56248	-494.50616	-785.73962	18.72408	638.73553	783.81134	25.91135	644.01550	-19.53201	598.47717	-1000.65393	
5274	52.730	-713.79230	-18.49469	-579.32220	700.92273	-7.84836	-494.84213	-785.49792	19.22790	638.58490	784.13269	26.31932	644.18750	-19.28921	597.74597	-1001.29309	
5275	52.740	-713.54388	-19.02700	-579.45184	701.14026	-8.33578	-494.71222	-785.43872	19.72272	638.41498	783.71313	26.81979	643.91888	-19.58793	596.95490	-1002.12158	
5276	52.750	-713.30914	-19.45152	-579.63171	701.40002	-8.88527	-494.72552	-785.35901	20.25690	638.27521	783.88013	27.35481	643.76715	-19.00367	596.13403	-1002.24481	
5277	52.760	-713.21222	-19.87578	-579.79993	701.49066	-9.24264	-494.96948	-785.20416	20.55638	638.15411	784.53876	28.00217	643.54956	-18.69426	595.58112	-1003.06439	
5278	52.770	-713.15839	-20.31926	-579.73163	701.88324	-9.51749	-494.93878	-784.83130	20.93498	638.03278	784.41113	28.44503	643.35010	-18.57131	594.40863	-1003.71155	
5279	52.780	-712.92572	-20.87100	-579.79584	701.99561	-9.73749	-495.07675	-784.61823	21.51945	637.90601	784.40942	28.55687	643.32397	-18.41471	594.01404	-1004.18988	
5280	52.790	-712.77930	-21.22838	-579.84967	702.20844	-10.21868	-495.16873	-784.37872	21.87343	637.75458	784.71844	29.04325	643.17126	-18.15378	593.33521	-1004.56598	
5281	52.800	-712.32074	-21.91508	-579.99139	702.29944	-10.48958	-495.34958	-784.19403	22.93881	637.77026	785.18372	29.42783	642.95740	-17.97685	592.16077	-1005.37811	
5282	52.810	-711.89777	-22.57192	-580.33191	702.45129	-10.84577	-495.51569	-783.98938	23.11178	637.57007	785.28766	30.54383	642.95477	-17.74831	591.58276	-1005.57172	
5283	52.820	-711.87476	-22.79671	-580.40588	702.75488	-11.52360	-495.54895	-783.73425	23.35997	637.49719	785.40167	30.69620	642.83734	-17.55808	590.86346	-1005.99188	
5284	52.830	-711.61407	-23.32253	-580.45087	702.79901	-11.94757	-495.75729	-783.58154	23.67942	637.31537	785.73285	30.98731	642.71863	-17.71981	589.95050	-1006.53180	
5285	52.840	-711.36603	-23.76141	-580.50244	702.82281	-12.25034	-495.86731	-783.31567	24.27439	637.15344	785.99249	31.52068	642.38019	-17.40278	589.18866	-1007.49683	
5286	52.850	-711.17889	-24.21940	-580.63031	703.01465	-12.54805	-495.96942	-783.03784	24.72286	636.93182	785.96191	31.88097	642.20654	-17.02443	588.47430	-1007.93005	
5287	52.860	-711.03845	-24.79050	-580.81696	703.65680	-13.21725	-495.96826	-783.01923	25.26653	636.70306	786.30310	32.61872	642.07330	-16.85061	587.64301	-1008.59290	
5288	52.870	-710.88251	-25.08061	-580.87860	703.98193	-13.46623	-496.14270	-782.79175	25.85822	636.55396	786.57489	33.14557	641.97760	-16.39073	586.73999	-1009.47791	
5289	52.880	-710.66736	-25.48669	-580.93781	704.35254	-13.87128	-496.28430	-782.57343	26.23381	636.46576	786.78241	33.48729	641.78235	-16.38383	585.97510	-1010.05359	
5290	52.890	-710.18579	-26.10953	-581.01642	704.51367	-14.19351	-496.41135	-782.16125	26.68643	636.40466	787.13678	33.99739	641.74078	-16.37406	585.32910	-1010.63782	
5291	52.900	-709.90546	-26.62387	-581.17914	704.72266	-14.62935	-496.43756	-781.91321	27.05019	636.25891	787.50183	34.53363	641.81274	-15.46558	584.10107	-1011.22656	
5292	52.910	-709.66614	-27.15159	-581.28955	704.85474	-14.89048	-496.65527	-781.65796	27.39966	636.18793	787.52948	34.81957	641.51166	-15.13869	583.42719	-1011.57001	
